<?xml version="1.0" encoding="UTF-8"?>
<svg version="1.1" xmlns="http://www.w3.org/2000/svg" width="80" height="80">
<path d="M0 0 C6.084375 -0.350625 12.16875 -0.70125 18.4375 -1.0625 C20.31880615 -1.21726807 22.2001123 -1.37203613 24.13842773 -1.53149414 C32.81440703 -1.95863577 39.45093137 -0.68824549 46.43606567 4.70462036 C53.65035163 11.26768292 56.87100765 17.35622805 57.58203125 27.11791992 C57.71742722 33.31101633 57.41545215 39.36718841 57.0625 45.5625 C56.711875 54.286875 56.36125 63.01125 56 72 C37.52 72 19.04 72 0 72 C0 48.24 0 24.48 0 0 Z " fill="#0E5D8E" transform="translate(12,4)"/>
<path d="M0 0 C6.084375 -0.350625 12.16875 -0.70125 18.4375 -1.0625 C20.31880615 -1.21726807 22.2001123 -1.37203613 24.13842773 -1.53149414 C32.81440703 -1.95863577 39.45093137 -0.68824549 46.43606567 4.70462036 C53.65035163 11.26768292 56.87100765 17.35622805 57.58203125 27.11791992 C57.71742722 33.31101633 57.41545215 39.36718841 57.0625 45.5625 C56.711875 54.286875 56.36125 63.01125 56 72 C37.52 72 19.04 72 0 72 C0 48.24 0 24.48 0 0 Z M1 1 C1 24.1 1 47.2 1 71 C18.82 71 36.64 71 55 71 C55 53.84 55 36.68 55 19 C49.06 19 43.12 19 37 19 C37 13.06 37 7.12 37 1 C25.12 1 13.24 1 1 1 Z " fill="#EEEFF0" transform="translate(12,4)"/>
<path d="M0 0 C5.64426769 4.68354127 11.0058046 9.6207646 16 15 C16 15.33 16 15.66 16 16 C10.72 16 5.44 16 0 16 C0 10.72 0 5.44 0 0 Z " fill="#2772A0" transform="translate(50,6)"/>
<path d="M0 0 C2.64 0 5.28 0 8 0 C7.29445932 3.66881155 5.72264494 6.70450534 4 10 C5.32 10 6.64 10 8 10 C8 10.99 8 11.98 8 13 C5.03 13 2.06 13 -1 13 C-0.06588007 9.2635203 1.22742965 6.39100415 3 3 C2.01 3 1.02 3 0 3 C0 2.01 0 1.02 0 0 Z " fill="#D1DCE3" transform="translate(42,40)"/>
<path d="M0 0 C3.3 0 6.6 0 10 0 C9.34496718 4.05819183 8.05440879 7.53971282 6.4375 11.3125 C5.98246094 12.38113281 5.52742188 13.44976562 5.05859375 14.55078125 C4.53458984 15.76314453 4.53458984 15.76314453 4 17 C3.01 17 2.02 17 1 17 C1.45363171 15.41531323 1.91311452 13.83230076 2.375 12.25 C2.63023438 11.36828125 2.88546875 10.4865625 3.1484375 9.578125 C3.9209934 7.23919428 4.83625676 5.16557438 6 3 C4.02 3 2.04 3 0 3 C0 2.01 0 1.02 0 0 Z " fill="#D6DFE5" transform="translate(30,36)"/>
<path d="M0 0 C0.95465783 2.16967689 1.14401212 3.56328793 0.3984375 5.82421875 C-0.35870385 7.5684743 -1.17609198 9.28627131 -2 11 C-2.99 11 -3.98 11 -5 11 C-4.55123384 9.35153231 -4.09069512 7.70626545 -3.625 6.0625 C-3.36976562 5.14597656 -3.11453125 4.22945312 -2.8515625 3.28515625 C-2 1 -2 1 0 0 Z " fill="#DFE5E9" transform="translate(36,42)"/>
</svg>
