<?xml version="1.0" encoding="UTF-8"?>
<svg version="1.1" xmlns="http://www.w3.org/2000/svg" width="100" height="100">
<path d="M0 0 C2.22394584 0.09741513 4.44140579 0.12488758 6.66723633 0.14624023 C18.4783676 0.44925317 18.4783676 0.44925317 23.4699707 4.78491211 C24.56221061 5.96760239 25.62803238 7.17543112 26.66137695 8.40991211 C27.82230847 9.52010721 28.98865779 10.62467585 30.16137695 11.72241211 C32.66137695 14.40991211 32.66137695 14.40991211 32.66137695 16.40991211 C33.58950195 16.84303711 33.58950195 16.84303711 34.53637695 17.28491211 C36.66137695 18.40991211 36.66137695 18.40991211 38.66137695 20.40991211 C38.97349548 22.53274536 38.97349548 22.53274536 39.05957031 25.19165039 C39.09557846 26.18673615 39.13158661 27.1818219 39.16868591 28.20706177 C39.19592239 29.28720551 39.22315887 30.36734924 39.2512207 31.48022461 C39.28244522 32.59041962 39.31366974 33.70061462 39.34584045 34.8444519 C39.40739044 37.19979487 39.46333489 39.55528987 39.51416016 41.91088867 C39.59806888 45.50034419 39.71983663 49.08724402 39.84301758 52.67553711 C39.89810085 54.96454429 39.9509076 57.25360761 40.0012207 59.54272461 C40.06332985 61.14472214 40.06332985 61.14472214 40.12669373 62.77908325 C40.2196921 69.54233858 39.2584122 74.26093823 34.66137695 79.40991211 C32.16155963 80.65982077 30.43002864 80.55714348 27.63256836 80.58691406 C26.58453033 80.5997493 25.53649231 80.61258453 24.45669556 80.62580872 C23.32025604 80.63319565 22.18381653 80.64058258 21.01293945 80.64819336 C19.84886566 80.65626511 18.68479187 80.66433685 17.48544312 80.6726532 C15.01903782 80.68650129 12.5526133 80.69722018 10.08618164 80.70507812 C6.30879598 80.72230984 2.53228102 80.76619322 -1.24487305 80.81030273 C-3.63809576 80.82042764 -6.03132593 80.82894437 -8.42456055 80.83569336 C-9.5569516 80.85320145 -10.68934265 80.87070953 -11.85604858 80.88874817 C-12.91039093 80.8858226 -13.96473328 80.88289703 -15.05102539 80.87988281 C-15.97764984 80.88574905 -16.90427429 80.8916153 -17.85897827 80.8976593 C-21.17109772 80.24616398 -22.31519428 79.07716237 -24.33862305 76.40991211 C-25.40766875 72.93422012 -25.46913853 69.5728575 -25.48388672 65.95214844 C-25.49026657 64.88366165 -25.49664642 63.81517487 -25.5032196 62.71430969 C-25.50433243 61.5684288 -25.50544525 60.42254791 -25.5065918 59.24194336 C-25.5099202 58.05195236 -25.5132486 56.86196136 -25.51667786 55.63591003 C-25.52173721 53.11844265 -25.52408649 50.60096856 -25.52392578 48.08349609 C-25.52610505 44.25403614 -25.54425177 40.42486772 -25.56323242 36.59545898 C-25.56616808 34.14428809 -25.56815172 31.69311583 -25.5690918 29.24194336 C-25.57627731 28.10618362 -25.58346283 26.97042389 -25.59086609 25.80024719 C-25.54310016 8.96686278 -25.54310016 8.96686278 -21.62063599 4.41723633 C-15.43276122 -0.91424069 -7.68185765 -0.36102947 0 0 Z M-20.33862305 7.40991211 C-22.02040255 10.77347111 -21.48009724 14.57454383 -21.47143555 18.27319336 C-21.47239227 19.17498825 -21.473349 20.07678314 -21.47433472 21.00590515 C-21.47501719 22.930207 -21.47315825 24.85451113 -21.46899414 26.77880859 C-21.4637646 29.64483244 -21.46887391 32.51069084 -21.4753418 35.37670898 C-21.48094164 44.96768075 -21.35899809 54.55515407 -21.01831055 64.14038086 C-20.99632599 65.0290535 -20.97434143 65.91772614 -20.95169067 66.83332825 C-20.91679535 67.65419418 -20.88190002 68.47506012 -20.84594727 69.32080078 C-20.82055878 70.04047531 -20.79517029 70.76014984 -20.76901245 71.50163269 C-20.20335503 74.00966938 -19.40993328 74.90311074 -17.33862305 76.40991211 C-15.20896201 76.89297119 -15.20896201 76.89297119 -12.82299805 76.87402344 C-11.45643066 76.91339775 -11.45643066 76.91339775 -10.06225586 76.9535675 C-8.59030762 76.97256355 -8.59030762 76.97256355 -7.08862305 76.99194336 C-6.07896484 77.01463791 -5.06930664 77.03733246 -4.02905273 77.06071472 C-1.89409734 77.10531326 0.24101983 77.14266721 2.3762207 77.17333984 C5.64902314 77.22222757 8.92042777 77.29770959 12.19262695 77.37670898 C14.26551361 77.41670697 16.33843058 77.45517015 18.41137695 77.49194336 C19.39267578 77.51472855 20.37397461 77.53751373 21.38500977 77.56098938 C22.29605469 77.57147812 23.20709961 77.58196686 24.14575195 77.59277344 C25.34796387 77.61250969 25.34796387 77.61250969 26.57446289 77.63264465 C28.96786207 77.54016966 28.96786207 77.54016966 31.66137695 75.40991211 C30.7660173 75.40111275 30.7660173 75.40111275 29.85256958 75.39213562 C23.65587197 75.32834294 17.45970056 75.24396099 11.26342773 75.14746094 C8.94904505 75.11414761 6.63457987 75.08613589 4.32006836 75.06347656 C0.99858339 75.03004834 -2.32214107 74.97773861 -5.64331055 74.92163086 C-6.68292938 74.91524094 -7.72254822 74.90885101 -8.79367065 74.90226746 C-9.75451569 74.8824733 -10.71536072 74.86267914 -11.70532227 74.84228516 C-12.9777327 74.82563057 -12.9777327 74.82563057 -14.27584839 74.80863953 C-14.95656403 74.67705948 -15.63727966 74.54547943 -16.33862305 74.40991211 C-18.73370367 70.81729118 -18.6848374 68.1306019 -18.75268555 63.97241211 C-18.77209702 63.22755051 -18.79150848 62.4826889 -18.81150818 61.71525574 C-18.87199767 59.28025862 -18.91819007 56.84523297 -18.96362305 54.40991211 C-19.00147071 52.73843302 -19.03980352 51.06696484 -19.07861328 49.39550781 C-19.38666311 35.40041113 -19.45607179 21.40799482 -19.33862305 7.40991211 C-19.66862305 7.40991211 -19.99862305 7.40991211 -20.33862305 7.40991211 Z " fill="#16C838" transform="translate(45.338623046875,8.590087890625)"/>
<path d="M0 0 C1.19882812 0.01450195 1.19882812 0.01450195 2.421875 0.02929688 C3.659375 0.06700195 3.659375 0.06700195 4.921875 0.10546875 C6.18257812 0.12577148 6.18257812 0.12577148 7.46875 0.14648438 C9.53673438 0.18173411 11.60438771 0.23553855 13.671875 0.29296875 C13.671875 0.62296875 13.671875 0.95296875 13.671875 1.29296875 C11.86589844 1.45732422 11.86589844 1.45732422 10.0234375 1.625 C8.44784353 1.7844351 6.87232639 1.94463087 5.296875 2.10546875 C4.5028125 2.17572266 3.70875 2.24597656 2.890625 2.31835938 C0.80408034 2.53939165 -1.26551817 2.90803115 -3.328125 3.29296875 C-5.95811732 7.23795722 -5.59713792 10.60831686 -5.55859375 15.18359375 C-5.55813553 16.07923035 -5.55767731 16.97486694 -5.5572052 17.89764404 C-5.55417836 19.80758985 -5.54627926 21.71753309 -5.53393555 23.62744141 C-5.51612936 26.46266094 -5.51342304 29.29754395 -5.51367188 32.1328125 C-5.48695136 45.53862389 -5.00749591 58.90535863 -4.328125 72.29296875 C2.41608741 72.4614892 9.16046575 72.62132395 15.9050293 72.77514648 C18.19902192 72.82848761 20.49296937 72.88381063 22.78686523 72.94116211 C26.08567564 73.02329313 29.38458332 73.09827554 32.68359375 73.171875 C34.21979622 73.2124276 34.21979622 73.2124276 35.78703308 73.25379944 C36.74765152 73.27389572 37.70826996 73.293992 38.69799805 73.31469727 C39.53960983 73.33468277 40.38122162 73.35466827 41.24833679 73.3752594 C43.81830938 73.28799661 46.16823847 72.86324859 48.671875 72.29296875 C48.65616455 70.86247192 48.65616455 70.86247192 48.64013672 69.40307617 C48.60392999 65.86405187 48.58097216 62.32504395 48.56201172 58.78588867 C48.55195565 57.25428514 48.538309 55.7227008 48.52099609 54.19116211 C48.49673002 51.98937239 48.48538812 49.78783656 48.4765625 47.5859375 C48.46623993 46.90146042 48.45591736 46.21698334 48.44528198 45.51176453 C48.44442118 41.86235214 48.58619834 40.42148373 50.671875 37.29296875 C50.91393998 42.34588491 51.12886994 47.39895852 51.31884766 52.45410156 C51.38725997 54.17316351 51.46304842 55.89194854 51.54638672 57.61035156 C51.66498415 60.08232211 51.7569148 62.55407881 51.84375 65.02734375 C51.88626892 65.79415466 51.92878784 66.56096558 51.97259521 67.35101318 C52.06787644 70.72872786 52.07563866 72.76803381 49.97772217 75.49554443 C47.20783746 77.65468932 45.89149016 77.79853259 42.41601562 77.81054688 C40.84418518 77.82945984 40.84418518 77.82945984 39.24060059 77.84875488 C37.55142517 77.8366095 37.55142517 77.8366095 35.828125 77.82421875 C34.08625916 77.82995911 34.08625916 77.82995911 32.3092041 77.83581543 C29.85472751 77.83853667 27.40022202 77.8311608 24.94580078 77.81445312 C21.18586659 77.7930484 17.42784341 77.81424963 13.66796875 77.83984375 C11.28384994 77.83720051 8.89973233 77.83207563 6.515625 77.82421875 C5.38950806 77.83231567 4.26339111 77.8404126 3.10314941 77.84875488 C2.05526245 77.83614624 1.00737549 77.8235376 -0.07226562 77.81054688 C-0.99285767 77.8073645 -1.91344971 77.80418213 -2.86193848 77.80090332 C-6.15297091 77.12308389 -7.31013722 75.94654099 -9.328125 73.29296875 C-10.3971707 69.81727676 -10.45864049 66.45591414 -10.47338867 62.83520508 C-10.47976852 61.76671829 -10.48614838 60.69823151 -10.49272156 59.59736633 C-10.49383438 58.45148544 -10.4949472 57.30560455 -10.49609375 56.125 C-10.49942215 54.935009 -10.50275055 53.74501801 -10.50617981 52.51896667 C-10.51123917 50.00149929 -10.51358844 47.4840252 -10.51342773 44.96655273 C-10.515607 41.13709278 -10.53375372 37.30792436 -10.55273438 33.47851562 C-10.55567003 31.02734473 -10.55765367 28.57617247 -10.55859375 26.125 C-10.56577927 24.98924026 -10.57296478 23.85348053 -10.58036804 22.68330383 C-10.54088514 8.76897469 -10.54088514 8.76897469 -8.328125 3.29296875 C-5.5026962 0.7474791 -3.7979477 -0.08138459 0 0 Z " fill="#000702" transform="translate(30.328125,11.70703125)"/>
<path d="M0 0 C4 0 4 0 6.3125 2.0625 C7.199375 3.031875 8.08625 4.00125 9 5 C10.87645204 6.82172219 12.75942246 8.63645955 14.64453125 10.44921875 C16 12 16 12 16 14 C16.61875 14.28875 17.2375 14.5775 17.875 14.875 C20 16 20 16 22 18 C21.625 20.125 21.625 20.125 21 22 C18.26916098 22.13548815 15.54508193 22.23429855 12.8125 22.3125 C12.04357422 22.35439453 11.27464844 22.39628906 10.48242188 22.43945312 C6.3878763 22.52731891 4.47376919 22.31360464 0.97265625 19.99609375 C-1.53030038 16.19457348 -1.60403919 13.14123406 -1.375 8.75 C-1.36082031 8.0178125 -1.34664062 7.285625 -1.33203125 6.53125 C-1.18348214 1.18348214 -1.18348214 1.18348214 0 0 Z " fill="#70E689" transform="translate(62,11)"/>
<path d="M0 0 C3.1875 0.25 3.1875 0.25 5.5625 1.25 C7.65369682 3.8237807 7.86351505 6.03328447 7.71875 9.30859375 C7.1875 11.25 7.1875 11.25 4.3125 13.75 C1.1875 15.25 1.1875 15.25 -0.8125 15.25 C-1.1425 16.9 -1.4725 18.55 -1.8125 20.25 C-2.8025 19.92 -3.7925 19.59 -4.8125 19.25 C-4.67232174 16.27046641 -4.52563658 13.29150696 -4.375 10.3125 C-4.33568359 9.46236328 -4.29636719 8.61222656 -4.25585938 7.73632812 C-4.21396484 6.92744141 -4.17207031 6.11855469 -4.12890625 5.28515625 C-4.09224854 4.5362915 -4.05559082 3.78742676 -4.01782227 3.01586914 C-3.67182136 0.0400968 -3.04120093 0.27032897 0 0 Z " fill="#CFECD4" transform="translate(65.8125,41.75)"/>
<path d="M0 0 C1.62490954 -0.02698189 3.24994633 -0.04638757 4.875 -0.0625 C5.77992187 -0.07410156 6.68484375 -0.08570313 7.6171875 -0.09765625 C10 0 10 0 12 1 C11.88759583 5.6085709 10.61543768 7.72909798 7.4375 10.875 C6.30330262 11.92932432 5.16107206 12.97534633 4 14 C6.64 14.33 9.28 14.66 12 15 C12 16.32 12 17.64 12 19 C7.71 19 3.42 19 -1 19 C-2 14 -2 14 -0.375 11.5 C2.04269315 8.95505984 4.48308057 6.447005 7 4 C4.69 4 2.38 4 0 4 C0 2.68 0 1.36 0 0 Z " fill="#E8F1EA" transform="translate(35,42)"/>
<path d="M0 0 C0.72680969 0.02644089 1.45361938 0.05288177 2.20245361 0.0801239 C4.51603511 0.16765684 6.82800575 0.27688015 9.140625 0.38671875 C10.71218249 0.45000186 12.28379776 0.5118671 13.85546875 0.57226562 C17.70138405 0.72315946 21.54600006 0.89350745 25.390625 1.07421875 C23.12880939 3.87964669 21.99087215 4.98409446 18.36621094 5.52832031 C17.21411133 5.50737305 16.06201172 5.48642578 14.875 5.46484375 C13.62460937 5.45195312 12.37421875 5.4390625 11.0859375 5.42578125 C9.13300781 5.37550781 9.13300781 5.37550781 7.140625 5.32421875 C5.82320312 5.30617188 4.50578125 5.288125 3.1484375 5.26953125 C-0.10489808 5.22238146 -3.35677125 5.15657919 -6.609375 5.07421875 C-6.609375 4.74421875 -6.609375 4.41421875 -6.609375 4.07421875 C-8.259375 3.74421875 -9.909375 3.41421875 -11.609375 3.07421875 C-8.03830098 -0.42879669 -4.71760675 -0.25134235 0 0 Z " fill="#12B330" transform="translate(38.609375,8.92578125)"/>
<path d="M0 0 C1.32 0.33 2.64 0.66 4 1 C4 6.94 4 12.88 4 19 C2.68 18.67 1.36 18.34 0 18 C0 12.06 0 6.12 0 0 Z " fill="#E3F0E6" transform="translate(53,42)"/>
</svg>
